<?xml version="1.0" encoding="utf-8"?>
<!-- Generator: Adobe Illustrator 25.0.0, SVG Export Plug-In . SVG Version: 6.00 Build 0)  -->
<svg version="1.1" id="Layer_1" xmlns="http://www.w3.org/2000/svg" xmlns:xlink="http://www.w3.org/1999/xlink" x="0px" y="0px"
	 viewBox="0 0 242.15 162.5" style="enable-background:new 0 0 242.15 162.5;" xml:space="preserve">
<style type="text/css">
	.st0{fill:#7D7D7D;}
	.st1{fill:none;stroke:#7D7D7D;stroke-miterlimit:10;}
	.st2{fill:none;stroke:#7D7D7D;stroke-width:2;stroke-miterlimit:10;}
	.st3{fill:#7D7D7D;stroke:#7D7D7D;stroke-width:3;stroke-miterlimit:10;}
</style>
<rect x="77.27" y="98.03" class="st0" width="9.5" height="9.6"/>
<rect x="77.27" y="110.9" class="st0" width="7.22" height="7.3"/>
<rect x="77.27" y="121.46" class="st0" width="9.5" height="9.6"/>
<rect x="77.27" y="65.18" class="st0" width="9.5" height="9.6"/>
<rect x="77.27" y="134.72" class="st0" width="6.46" height="6.52"/>
<rect x="77.27" y="79.18" class="st0" width="13.5" height="13.65"/>
<rect x="77.27" y="21.26" class="st0" width="42.77" height="35.67"/>
<rect x="130.06" y="49.38" class="st1" width="19.6" height="6.44"/>
<rect x="66.43" y="36.15" class="st1" width="13.2" height="6.16"/>
<path class="st2" d="M79.27,68.93c-1.36-1.28-9.54-4.2-7.35-10.48c0.41-0.8,0.86-5.03,9.23-8.41"/>
<path class="st2" d="M78.98,84.5c-0.01-1.1-5.25-2.97-5.27-7.48c1.31-4.22,5.19-4.85,5.19-6.56"/>
<path class="st2" d="M78.75,112.65c0-0.62-2.95-1.67-2.97-4.21c0.73-2.37,2.92-2.73,2.92-3.69"/>
<path class="st2" d="M78.75,124.36c-0.01-0.62-6.28-1.65-6.29-4.19c1.58-2.38,6.24-2.75,6.24-3.71"/>
<path class="st2" d="M82.87,101.53c-1.6-0.66-16.38-1.34-16.44-5.86c-0.09-5.44,4.83-6.23,16.47-6.03"/>
<path class="st2" d="M82.79,138.53c-1.57-0.55-16.07-0.92-16.06-4.86c-0.01-4.73,4.83-5.49,16.27-5.49"/>
<line class="st3" x1="130.06" y1="26.64" x2="169.25" y2="26.64"/>
<line class="st3" x1="130.06" y1="32.87" x2="160.44" y2="32.87"/>
<line class="st3" x1="130.06" y1="39.09" x2="156.45" y2="39.09"/>
</svg>
