<?xml version="1.0" encoding="utf-8"?>
<!-- Generator: Adobe Illustrator 25.0.0, SVG Export Plug-In . SVG Version: 6.00 Build 0)  -->
<svg version="1.1" id="Layer_1" xmlns="http://www.w3.org/2000/svg" xmlns:xlink="http://www.w3.org/1999/xlink" x="0px" y="0px"
	 viewBox="0 0 242.1 162.5" style="enable-background:new 0 0 242.1 162.5;" xml:space="preserve">
<style type="text/css">
	.st0{fill:#7D7D7D;}
	.st1{fill:none;stroke:#7D7D7D;stroke-width:2;stroke-miterlimit:10;}
</style>
<rect x="105.5" y="38.5" class="st0" width="9.3" height="7.5"/>
<rect x="134.2" y="43.5" class="st0" width="6.7" height="10"/>
<rect x="86.1" y="118.8" class="st0" width="11.2" height="7.4"/>
<rect x="118.1" y="122.5" class="st0" width="8" height="8"/>
<rect x="121.4" y="51.7" class="st0" width="8" height="8"/>
<rect x="159.9" y="84" class="st0" width="8.1" height="8.2"/>
<rect x="121.9" y="40" class="st0" width="8.1" height="8.2"/>
<rect x="132.8" y="81" class="st0" width="8.1" height="8.2"/>
<rect x="101.5" y="71.5" class="st0" width="8.1" height="8.2"/>
<rect x="93.8" y="44.3" class="st0" width="5.8" height="5.9"/>
<rect x="146.1" y="43.7" class="st0" width="5.7" height="5.8"/>
<rect x="150.2" y="97" class="st0" width="8.1" height="8.2"/>
<rect x="105" y="50.2" class="st0" width="5.5" height="5.6"/>
<rect x="121.9" y="110.6" class="st0" width="8.1" height="6"/>
<rect x="86.5" y="70.7" class="st0" width="8.1" height="8.2"/>
<rect x="76.3" y="88.7" class="st0" width="8.1" height="8.2"/>
<rect x="86.5" y="82.8" class="st0" width="8.1" height="8.2"/>
<rect x="91.7" y="106.8" class="st0" width="5.6" height="8.2"/>
<rect x="144.9" y="72.9" class="st0" width="8.1" height="8.2"/>
<rect x="139.5" y="64" class="st0" width="4.5" height="4.6"/>
<rect x="161.6" y="95.5" class="st0" width="4.5" height="4.6"/>
<rect x="170.6" y="73.6" class="st0" width="4.5" height="4.6"/>
<rect x="113.7" y="51.3" class="st0" width="4.5" height="4.6"/>
<rect x="78" y="78.8" class="st0" width="4.5" height="4.6"/>
<rect x="72.5" y="64.6" class="st0" width="4.5" height="4.6"/>
<rect x="64.4" y="71.2" class="st0" width="4.5" height="4.6"/>
<rect x="112.5" y="106.2" class="st0" width="4.5" height="4.6"/>
<rect x="112.1" y="117.9" class="st0" width="4.5" height="4.6"/>
<rect x="128.1" y="101.1" class="st0" width="4.5" height="4.6"/>
<rect x="101" y="106.2" class="st0" width="4.5" height="4.6"/>
<rect x="98.7" y="120.2" class="st0" width="4.5" height="4.6"/>
<rect x="41.3" y="74.8" class="st0" width="8.1" height="8.2"/>
<rect x="126.1" y="29.8" class="st0" width="6.5" height="6.6"/>
<rect x="101" y="96.9" class="st0" width="8.1" height="5.8"/>
<rect x="105.5" y="126.5" class="st0" width="5.3" height="5.3"/>
<rect x="176" y="83.9" class="st0" width="4" height="6"/>
<rect x="71.1" y="72.6" class="st0" width="5.2" height="5.2"/>
<rect x="136.8" y="102.1" class="st0" width="4.9" height="4.9"/>
<rect x="116.6" y="95.3" class="st0" width="5.3" height="7.1"/>
<rect x="62.7" y="78.9" class="st0" width="7.9" height="8"/>
<rect x="54.3" y="86.2" class="st0" width="6" height="6.1"/>
<rect x="60.9" y="59.7" class="st0" width="8.3" height="8.4"/>
<rect x="161" y="74.9" class="st0" width="5.8" height="5.8"/>
<rect x="170.6" y="95.3" class="st0" width="7.4" height="7.5"/>
<rect x="182.7" y="73.3" class="st0" width="7.4" height="7.5"/>
<rect x="146.9" y="85.6" class="st0" width="6.9" height="7"/>
<rect x="80.3" y="58.4" class="st0" width="8.2" height="8.3"/>
<rect x="53.1" y="71.8" class="st0" width="6.3" height="9.2"/>
<rect x="105" y="112.6" class="st0" width="5.7" height="5.8"/>
<rect x="134.6" y="112.5" class="st0" width="7.1" height="7.2"/>
<path class="st1" d="M167,143c-2.4,0.7-7,1.7-12.5,0.3c-1.2-0.3-4.1-1.1-7.3-3.1c-5.4-3.4-8.4-8.2-9.8-11"/>
<path class="st1" d="M52.8,30.4c1.6-1,3.7-1,7.4,1c0.8,0.4,2.7,1.6,4.8,4.7c3.6,5.1,5.5,12.1,6.5,16.1"/>
<polyline class="st1" points="67.8,50.7 71.9,53.6 74.2,48.5 "/>
<polyline class="st1" points="141.6,130.1 136.8,128.5 136,134 "/>
</svg>
