<?xml version="1.0" encoding="utf-8"?>
<!-- Generator: Adobe Illustrator 25.0.0, SVG Export Plug-In . SVG Version: 6.00 Build 0)  -->
<svg version="1.1" id="Layer_1" xmlns="http://www.w3.org/2000/svg" xmlns:xlink="http://www.w3.org/1999/xlink" x="0px" y="0px"
	 viewBox="0 0 242.15 162.5" style="enable-background:new 0 0 242.15 162.5;" xml:space="preserve">
<style type="text/css">
	.st0{fill:#7D7D7D;}
	.st1{fill:none;stroke:#7D7D7D;stroke-width:2;stroke-miterlimit:10;}
</style>
<rect x="102.58" y="28.2" class="st0" width="14.4" height="11.6"/>
<rect x="136.21" y="32.34" class="st0" width="10.94" height="16.4"/>
<rect x="75.77" y="125.27" class="st0" width="17.2" height="11.32"/>
<rect x="117.28" y="129.66" class="st0" width="13.86" height="13.86"/>
<rect x="117.84" y="46.58" class="st0" width="12.73" height="12.73"/>
<rect x="189.78" y="86.29" class="st0" width="9.5" height="9.6"/>
<rect x="121.85" y="32.78" class="st0" width="9.5" height="9.6"/>
<rect x="134.57" y="80.98" class="st0" width="9.5" height="9.6"/>
<rect x="103.98" y="76.18" class="st0" width="9.5" height="9.6"/>
<rect x="88.84" y="37.88" class="st0" width="9.5" height="9.6"/>
<rect x="150.23" y="34.29" class="st0" width="9.5" height="9.6"/>
<rect x="154.98" y="115.67" class="st0" width="9.5" height="9.6"/>
<rect x="102" y="44.76" class="st0" width="9.5" height="9.6"/>
<rect x="121.8" y="113.16" class="st0" width="9.5" height="9.6"/>
<rect x="67.35" y="68.81" class="st0" width="9.5" height="9.6"/>
<rect x="55.35" y="89.94" class="st0" width="9.5" height="9.6"/>
<rect x="67.35" y="83.01" class="st0" width="9.5" height="9.6"/>
<rect x="83.46" y="111.16" class="st0" width="9.5" height="9.6"/>
<rect x="156.94" y="73.61" class="st0" width="9.5" height="9.6"/>
<rect x="142.4" y="61" class="st0" width="9.5" height="9.6"/>
<rect x="85.65" y="65.38" class="st0" width="9.5" height="9.6"/>
<rect x="14.36" y="73.61" class="st0" width="9.5" height="9.6"/>
<rect x="126.71" y="18.98" class="st0" width="9.5" height="9.6"/>
<rect x="97.25" y="96.76" class="st0" width="9.5" height="9.6"/>
<rect x="102.55" y="134.29" class="st0" width="9.5" height="9.6"/>
<rect x="203.37" y="90.64" class="st0" width="9.5" height="14.11"/>
<rect x="49.26" y="71.1" class="st0" width="12.98" height="13.11"/>
<rect x="139.32" y="95.62" class="st0" width="15.65" height="15.82"/>
<rect x="115.6" y="92.39" class="st0" width="13.5" height="13.65"/>
<rect x="37.33" y="89.94" class="st0" width="13.5" height="13.65"/>
<rect x="37.33" y="52.16" class="st0" width="13.5" height="13.65"/>
<rect x="175.82" y="69.32" class="st0" width="13.5" height="13.65"/>
<rect x="187.11" y="100.04" class="st0" width="8.7" height="8.79"/>
<rect x="201.37" y="69.32" class="st0" width="13.5" height="13.65"/>
<rect x="168.87" y="87.66" class="st0" width="13.71" height="13.85"/>
<rect x="60.1" y="49.56" class="st0" width="14.49" height="14.65"/>
<rect x="28.22" y="70.18" class="st0" width="14.8" height="14.95"/>
<rect x="102" y="111.16" class="st0" width="13.46" height="13.6"/>
<rect x="136.75" y="117.86" class="st0" width="14.65" height="14.81"/>
<path class="st1" d="M230.66,49.16c-2.78-0.82-8.2-1.98-14.67-0.35c-1.41,0.35-4.81,1.33-8.61,3.81
	c-6.36,4.15-9.83,9.87-11.48,13.16"/>
<line class="st1" x1="195.53" y1="66.36" x2="195.9" y2="57.61"/>
<line class="st1" x1="203.36" y1="62.31" x2="195.6" y2="66.38"/>
<path class="st1" d="M27.83,21.61c1.83-1.18,4.39-1.16,8.65,1.18c0.93,0.51,3.17,1.91,5.68,5.47c4.19,5.95,6.48,14.17,7.57,18.89"/>
<line class="st1" x1="50.06" y1="47.79" x2="50.97" y2="39.09"/>
<line class="st1" x1="44.08" y1="42.5" x2="50" y2="47.79"/>
</svg>
